{"title":"Christina Aguilera - Candy Man &amp; Fighter (Dick Clarks New Ye","uid":7444816,"size":821553984,"categoryP":"video","categoryS":"other","magnet":"?xt=urn:btih:56e1db6695f39acd36b695fa0d2612eaf5725bac&amp;dn=Christina+Aguilera+-+Candy+Man+%26amp%3B+Fighter+%28Dick+Clarks+New+Ye&amp;tr=udp%3A%2F%2Ftracker.openbittorrent.com%3A80&amp;tr=udp%3A%2F%2Fopen.demonii.com%3A1337&amp;tr=udp%3A%2F%2Ftracker.coppersurfer.tk%3A6969&amp;tr=udp%3A%2F%2Fexodus.desync.com%3A6969","seeders":1,"leechers":0,"uploader":null,"files":1,"time":1342335610,"description":"Format                           : MPEG-TS\nFile size                        : 783 MiB\nDuration                         : 6mn 53s\nOverall bit rate mode            : Variable\nOverall bit rate                 : 15.9 Mbps\n\nVideo\nID                               : 17 (0x11)\nMenu ID                          : 1 (0x1)\nFormat                           : MPEG Video\nFormat version                   : Version 2\nFormat profile                   : Main@High\nFormat settings, BVOP            : Yes\nFormat settings, Matrix          : Custom\nFormat settings, GOP             : M=3, N=30\nCodec ID                         : 2\nDuration                         : 6mn 53s\nBit rate mode                    : Variable\nBit rate                         : 14.7 Mbps\nMaximum bit rate                 : 65.0 Mbps\nWidth                            : 1 920 pixels\nHeight                           : 1 080 pixels\nDisplay aspect ratio             : 16:9\nFrame rate                       : 29.970 fps\nColor space                      : YUV\nChroma subsampling               : 4:2:0\nBit depth                        : 8 bits\nScan type                        : Interlaced\nScan order                       : Top Field First\nCompression mode                 : Lossy\nBits/(Pixel*Frame)               : 0.237\nStream size                      : 725 MiB (93%)\n\nAudio\nID                               : 20 (0x14)\nMenu ID                          : 1 (0x1)\nFormat                           : AC-3\nFormat/Info                      : Audio Coding 3\nMode extension                   : CM (complete main)\nCodec ID                         : 129\nDuration                         : 6mn 53s\nBit rate mode                    : Constant\nBit rate                         : 384 Kbps\nChannel(s)                       : 6 channels\nChannel positions                : Front: L C R, Side: L R, LFE\nSampling rate                    : 48.0 KHz\nBit depth                        : 16 bits\nCompression mode                 : Lossy\nDelay relative to video          : -439ms\nStream size                      : 18.9 MiB (2%)\nLanguage                         : English\n\nText #1\nID                               : 17 (0x11)-608-1\nMenu ID                          : 1 (0x1)\nFormat                           : EIA-608\nMuxing mode                      : A/53 / DTVCC Transport\nMuxing mode, more info           : Muxed in Video #1\nDuration                         : 6mn 53s\nBit rate mode                    : Constant\nStream size                      : 0.00 Byte (0%)\n\nText #2\nID                               : 17 (0x11)-1\nMenu ID                          : 1 (0x1)\nFormat                           : EIA-708\nMuxing mode                      : A/53 / DTVCC Transport\nMuxing mode, more info           : Muxed in Video #1\nDuration                         : 6mn 53s\nBit rate mode                    : Constant\nStream size                      : 0.00 Byte (0%)\n","torrent":{"xt":"urn:btih:56e1db6695f39acd36b695fa0d2612eaf5725bac","amp;dn":"Christina+Aguilera+-+Candy+Man+%26amp%3B+Fighter+%28Dick+Clarks+New+Ye","amp;tr":["udp%3A%2F%2Ftracker.openbittorrent.com%3A80","udp%3A%2F%2Fopen.demonii.com%3A1337","udp%3A%2F%2Ftracker.coppersurfer.tk%3A6969","udp%3A%2F%2Fexodus.desync.com%3A6969"],"infoHash":"56e1db6695f39acd36b695fa0d2612eaf5725bac","infoHashBuffer":{"type":"Buffer","data":[86,225,219,102,149,243,154,205,54,182,149,250,13,38,18,234,245,114,91,172]},"announce":[],"urlList":[]}}